<?xml version="1.0" encoding="iso-8859-1"?>
<!-- Uploaded to: SVG Repo, www.svgrepo.com, Generator: SVG Repo Mixer Tools -->
<svg fill="#000000" height="800px" width="800px" version="1.1" id="Layer_1" xmlns="http://www.w3.org/2000/svg" xmlns:xlink="http://www.w3.org/1999/xlink" 
	 viewBox="0 0 511.996 511.996" xml:space="preserve">
<g>
	<g>
		<path d="M511.777,228.173c-5.204-27.057-14.634-52.973-28.011-77.004c-0.73-1.324-1.691-2.465-2.818-3.403
			c-0.247-1.44-0.75-2.837-1.526-4.128c-14.152-23.573-31.874-44.688-52.674-62.758c-1.136-0.986-2.425-1.726-3.799-2.221
			c-0.723-1.271-1.675-2.415-2.846-3.369c-21.447-17.415-45.308-31.217-70.893-41.012c-1.435-0.556-2.912-0.802-4.367-0.793
			c-1.098-0.937-2.376-1.695-3.815-2.191c-25.897-8.947-53.045-13.714-80.68-14.168c-0.073-0.001-0.147-0.002-0.222-0.002
			c-1.43,0-2.819,0.262-4.125,0.744c-1.371-0.507-2.835-0.769-4.345-0.743c-7.933,0.131-15.936,0.624-23.786,1.467
			c-4.304,0.462-7.417,4.326-6.955,8.629c0.462,4.304,4.339,7.421,8.629,6.955c6.143-0.66,12.385-1.092,18.615-1.289v135.393v0.27
			c-0.464,0.032-0.927,0.076-1.391,0.114c-0.207,0.017-0.414,0.032-0.621,0.051c-1.425,0.125-2.846,0.276-4.262,0.456
			c-0.186,0.023-0.371,0.05-0.556,0.074c-2.924,0.385-5.825,0.886-8.702,1.502c-0.179,0.039-0.358,0.075-0.537,0.114
			c-1.393,0.305-2.779,0.639-4.161,0.999c-0.195,0.051-0.39,0.103-0.584,0.156c-0.443,0.118-0.887,0.23-1.329,0.353l-16.757-46.061
			l-29.612-81.398c5.648-1.853,11.401-3.51,17.151-4.938c4.199-1.044,6.759-5.294,5.716-9.495c-1.044-4.199-5.298-6.759-9.495-5.716
			c-7.414,1.842-14.833,4.041-22.059,6.537c-1.436,0.497-2.717,1.252-3.814,2.191c-1.445-0.011-2.912,0.233-4.332,0.779
			c-25.614,9.806-49.475,23.608-70.93,41.03c-1.168,0.951-2.118,2.094-2.84,3.364c-1.374,0.495-2.663,1.235-3.798,2.221
			c-20.799,18.068-38.521,39.184-52.674,62.759c-0.774,1.289-1.278,2.686-1.523,4.124c-1.125,0.934-2.081,2.069-2.805,3.379
			C14.851,175.202,5.422,201.118,0.22,228.164c-0.61,3.155,0.059,6.357,1.883,9.016c1.811,2.645,4.66,4.484,7.833,5.051
			l135.372,23.882l-0.001,0.003l62.342,10.993l-31.644,5.58l1.347,7.707c1.606,9.195,4.801,17.969,9.491,26.069
			c4.661,8.073,10.659,15.221,17.829,21.247c7.184,6.03,15.263,10.7,24.007,13.879c6.294,2.292,12.822,3.756,19.483,4.405v9.309
			H235.1c-4.328,0-7.837,3.509-7.837,7.837v31.229c0,4.328,3.509,7.837,7.837,7.837s7.837-3.509,7.837-7.837v-23.392h26.122V479.2
			h-26.122v-30.594c0-4.328-3.509-7.837-7.837-7.837s-7.837,3.509-7.837,7.837v38.43c0,4.328,3.509,7.837,7.837,7.837h41.795
			c4.329,0,7.837-3.509,7.837-7.837V373.144c0-4.328-3.508-7.837-7.837-7.837h-13.061v-9.309c6.661-0.649,13.189-2.114,19.479-4.404
			c8.749-3.181,16.826-7.85,24.014-13.884c7.168-6.025,13.166-13.173,17.821-21.235c4.694-8.108,7.889-16.882,9.495-26.078
			l1.347-7.708l-31.644-5.58l62.342-10.993l-0.001-0.003l53.386-9.419c4.262-0.751,7.108-4.817,6.356-9.079
			c-0.751-4.262-4.817-7.112-9.078-6.355l-53.892,9.508c-0.131-0.489-0.272-0.974-0.409-1.46c-0.065-0.23-0.128-0.46-0.193-0.689
			c-0.39-1.354-0.806-2.699-1.247-4.035c-0.079-0.239-0.161-0.478-0.241-0.717c-0.464-1.374-0.947-2.741-1.465-4.094
			c-0.014-0.036-0.028-0.07-0.042-0.106c-0.515-1.342-1.062-2.672-1.629-3.993c-0.087-0.201-0.17-0.402-0.257-0.603
			c-0.568-1.302-1.163-2.592-1.783-3.873c-0.103-0.214-0.209-0.426-0.313-0.639c-0.194-0.395-0.382-0.793-0.582-1.187l54.784-31.639
			l61.774-35.676c11.036,20.56,19.027,42.522,23.791,65.389l-37.198,6.563c-4.262,0.751-7.108,4.817-6.356,9.079
			c0.751,4.262,4.819,7.109,9.078,6.355l40.904-7.216c3.156-0.564,6.004-2.403,7.817-5.046
			C511.716,234.521,512.385,231.319,511.777,228.173z M347.073,50.274c21.589,8.651,41.814,20.353,60.209,34.833l-86.944,103.664
			c-0.41-0.292-0.826-0.572-1.238-0.857c-0.15-0.103-0.3-0.209-0.45-0.311c-1.195-0.817-2.404-1.61-3.629-2.378
			c-0.147-0.093-0.297-0.183-0.444-0.275c-2.529-1.57-5.117-3.036-7.762-4.397c-0.141-0.073-0.281-0.147-0.423-0.219
			c-1.285-0.654-2.584-1.281-3.895-1.885c-0.179-0.083-0.357-0.163-0.537-0.245c-0.408-0.185-0.813-0.376-1.224-0.557l0.093-0.257
			l-0.001-0.001L347.073,50.274z M295.362,192.42c0.044,0.02,0.09,0.038,0.134,0.057c1.023,0.465,2.034,0.958,3.041,1.46
			c0.243,0.121,0.492,0.232,0.734,0.355c2.517,1.28,4.977,2.672,7.373,4.173c0.066,0.042,0.131,0.087,0.196,0.129
			c1.115,0.703,2.218,1.427,3.306,2.178c0.027,0.019,0.054,0.04,0.081,0.059l-31.667,37.762L295.362,192.42z M263.834,233.223
			v-48.947c0.049,0.004,0.099,0.005,0.148,0.009c1.092,0.091,2.179,0.211,3.264,0.338c0.3,0.036,0.601,0.058,0.901,0.096
			c2.796,0.354,5.57,0.831,8.316,1.43c0.04,0.008,0.079,0.02,0.12,0.028c1.318,0.289,2.63,0.607,3.934,0.953
			c0.027,0.007,0.054,0.016,0.08,0.023L263.834,233.223z M312.915,222.016l9.434-11.25c0.049,0.047,0.1,0.092,0.149,0.139
			c0.728,0.705,1.435,1.432,2.139,2.16c0.276,0.283,0.561,0.558,0.832,0.845c0.883,0.935,1.744,1.89,2.588,2.86
			c0.079,0.091,0.163,0.177,0.241,0.269c0.934,1.08,1.843,2.181,2.728,3.303c0.055,0.07,0.107,0.143,0.161,0.213
			c0.813,1.036,1.607,2.089,2.378,3.159c0.021,0.029,0.04,0.059,0.061,0.088l-28.634,16.534l-14.427,8.331L312.915,222.016z
			 M263.832,168.28V32.889c23.426,0.739,46.436,4.775,68.513,12.022l-44.092,121.202l-2.276,6.256
			c-0.443-0.123-0.888-0.236-1.332-0.354c-0.193-0.051-0.387-0.103-0.58-0.155c-1.382-0.359-2.77-0.694-4.165-1
			c-0.177-0.039-0.354-0.074-0.531-0.113c-2.879-0.616-5.784-1.117-8.709-1.503c-0.184-0.024-0.368-0.05-0.553-0.073
			c-1.417-0.18-2.838-0.33-4.264-0.456c-0.206-0.018-0.413-0.034-0.62-0.051c-0.464-0.038-0.927-0.082-1.392-0.114V168.28z
			 M255.997,260.134c9.049,0,16.411,7.362,16.411,16.411c0,9.05-7.362,16.411-16.411,16.411c-9.049,0-16.411-7.362-16.411-16.411
			S246.949,260.134,255.997,260.134z M231.475,187.13c1.289-0.342,2.586-0.654,3.888-0.941c0.057-0.013,0.114-0.028,0.171-0.041
			c2.744-0.599,5.516-1.075,8.311-1.429c0.305-0.039,0.613-0.063,0.918-0.098c1.08-0.126,2.162-0.247,3.248-0.335
			c0.049-0.004,0.099-0.005,0.148-0.009v48.946l-16.764-46.069C231.423,187.146,231.449,187.137,231.475,187.13z M213.43,193.951
			c1.018-0.507,2.04-1.005,3.075-1.475c0.043-0.02,0.087-0.037,0.13-0.055l16.803,46.175l-31.671-37.765
			c0.027-0.019,0.053-0.04,0.08-0.057c1.092-0.753,2.198-1.481,3.316-2.185c0.063-0.04,0.123-0.083,0.187-0.122
			c2.397-1.503,4.857-2.894,7.375-4.174C212.958,194.174,213.196,194.067,213.43,193.951z M221.426,248.664L178.367,223.8
			c0.022-0.03,0.042-0.063,0.064-0.093c0.757-1.05,1.537-2.082,2.334-3.1c0.069-0.089,0.134-0.181,0.204-0.269
			c0.884-1.12,1.793-2.22,2.725-3.3c0.08-0.093,0.166-0.182,0.248-0.275c0.843-0.969,1.703-1.923,2.586-2.857
			c0.259-0.274,0.531-0.536,0.792-0.807c0.718-0.742,1.439-1.483,2.182-2.203c0.047-0.045,0.095-0.088,0.142-0.133L221.426,248.664z
			 M164.921,50.275l27.616,75.907l18.631,51.209h-0.001l0.093,0.257c-0.406,0.179-0.809,0.368-1.213,0.552
			c-0.185,0.085-0.371,0.167-0.556,0.253c-1.305,0.601-2.598,1.226-3.877,1.876c-0.152,0.077-0.301,0.157-0.451,0.234
			c-2.63,1.353-5.204,2.812-7.719,4.373c-0.162,0.1-0.324,0.2-0.485,0.3c-1.215,0.763-2.416,1.55-3.602,2.36
			c-0.158,0.108-0.315,0.218-0.472,0.327c-0.409,0.282-0.821,0.56-1.227,0.848L104.711,85.11
			C123.107,70.627,143.329,58.927,164.921,50.275z M92.711,95.196l18.718,22.316l67.94,80.999l0.178,0.211
			c-0.192,0.182-0.371,0.376-0.562,0.559c-0.833,0.799-1.646,1.619-2.453,2.442c-0.427,0.436-0.863,0.863-1.283,1.306
			c-1.192,1.258-2.359,2.538-3.491,3.849c-0.186,0.215-0.359,0.441-0.543,0.658c-0.954,1.123-1.889,2.261-2.798,3.422
			c-0.393,0.503-0.769,1.018-1.154,1.527c-0.682,0.903-1.357,1.811-2.012,2.734c-0.166,0.235-0.347,0.459-0.511,0.695L48.642,148.87
			l-0.665-0.386C60.284,128.68,75.31,110.782,92.711,95.196z M156.121,230.549c-0.108,0.218-0.215,0.437-0.322,0.656
			c-0.619,1.28-1.214,2.57-1.782,3.871c-0.086,0.195-0.167,0.393-0.251,0.588c-0.573,1.334-1.125,2.677-1.645,4.032
			c-0.008,0.023-0.018,0.045-0.027,0.068c-0.52,1.36-1.006,2.734-1.472,4.116c-0.078,0.232-0.158,0.464-0.235,0.696
			c-0.442,1.339-0.859,2.686-1.249,4.043c-0.066,0.23-0.13,0.462-0.194,0.693c-0.136,0.486-0.278,0.97-0.408,1.458L16.346,227.448
			c4.759-22.853,12.748-44.809,23.791-65.389l70.968,40.985l45.591,26.329C156.499,229.763,156.313,230.157,156.121,230.549z
			 M164.045,253.506c0.011-0.046,0.022-0.092,0.034-0.138c0.331-1.169,0.692-2.327,1.067-3.481c0.063-0.193,0.116-0.391,0.181-0.584
			c0.451-1.357,0.933-2.704,1.445-4.039c0.088-0.23,0.189-0.455,0.279-0.683c0.428-1.09,0.867-2.175,1.336-3.25
			c0.184-0.422,0.387-0.836,0.578-1.255c0.396-0.872,0.792-1.746,1.216-2.607c0.038-0.077,0.08-0.153,0.118-0.23l43.301,25.004
			L164.045,253.506z M317.382,295.323c-1.413,4.623-3.353,9.075-5.803,13.308c-3.745,6.487-8.568,12.234-14.333,17.079
			c-5.776,4.849-12.266,8.603-19.293,11.156c-7.022,2.557-14.408,3.853-21.956,3.853c-7.548,0-14.936-1.297-21.961-3.855
			c-7.022-2.553-13.512-6.306-19.286-11.152c-5.766-4.846-10.589-10.593-14.34-17.09c-2.447-4.227-4.386-8.678-5.798-13.298
			l32.115-5.662c5.025,11.169,16.25,18.968,29.27,18.968c13.019,0,24.245-7.8,29.27-18.968L317.382,295.323z M298.394,262.245
			l10.24-5.913l33.063-19.091c0.037,0.075,0.078,0.148,0.115,0.223c0.423,0.861,0.819,1.734,1.215,2.606
			c0.192,0.423,0.397,0.841,0.583,1.268c0.447,1.024,0.863,2.059,1.274,3.097c0.111,0.282,0.235,0.559,0.344,0.842
			c0.509,1.327,0.988,2.667,1.438,4.017c0.094,0.281,0.172,0.568,0.262,0.851c0.343,1.065,0.678,2.132,0.983,3.209
			c0.015,0.051,0.026,0.103,0.041,0.155L298.394,262.245z M463.353,148.848v0.021l-89.347,51.6l-26.749,15.449
			c-0.168-0.241-0.352-0.47-0.522-0.709c-0.648-0.914-1.316-1.812-1.991-2.705c-0.389-0.515-0.77-1.037-1.167-1.544
			c-0.903-1.152-1.832-2.282-2.778-3.398c-0.191-0.225-0.371-0.459-0.563-0.682c-1.128-1.308-2.293-2.585-3.482-3.84
			c-0.43-0.455-0.879-0.893-1.318-1.342c-0.794-0.811-1.594-1.616-2.414-2.403c-0.194-0.187-0.377-0.385-0.573-0.57l0.177-0.211
			l15.441-18.411l71.212-84.907c17.402,15.584,32.424,33.477,44.73,53.278L463.353,148.848z"/>
	</g>
</g>
</svg>