<?xml version="1.0" encoding="iso-8859-1"?>
<!-- Uploaded to: SVG Repo, www.svgrepo.com, Generator: SVG Repo Mixer Tools -->
<svg fill="#000000" height="800px" width="800px" version="1.1" id="Layer_1" xmlns="http://www.w3.org/2000/svg" xmlns:xlink="http://www.w3.org/1999/xlink" 
	 viewBox="0 0 512 512" xml:space="preserve">
<g>
	<g>
		<path d="M495.297,0.007H16.702C5.84,0.007-2.125,10.23,0.506,20.751l4.049,16.197c8.222,32.887,35.171,56.998,67.798,62.178
			v67.833H22.267c-9.22,0-16.695,7.475-16.695,16.695v66.781c0,9.22,7.475,16.695,16.695,16.695h50.086v148.488l-13.496,62.984
			H38.962c-9.22,0-16.695,7.475-16.695,16.695c0,9.22,7.475,16.695,16.695,16.695c6.765,0,159.949,0,166.952,0
			c9.22,0,16.695-7.475,16.695-16.695c0-9.22-7.475-16.695-16.695-16.695H186.02l-13.496-62.984V267.13h166.952v148.488
			l-13.496,62.984h-19.894c-9.22,0-16.695,7.475-16.695,16.695c0,9.22,7.475,16.695,16.695,16.695c6.765,0,159.949,0,166.952,0
			c9.22,0,16.695-7.475,16.695-16.695c0-9.22-7.475-16.695-16.695-16.695h-19.894l-13.496-62.984V267.13h50.086
			c9.22,0,16.695-7.475,16.695-16.695v-66.781c0-9.22-7.475-16.695-16.695-16.695h-50.086V99.126
			c32.627-5.18,59.576-29.291,67.798-62.178l4.049-16.197C514.128,10.211,506.138,0.007,495.297,0.007z M72.353,233.74h-33.39
			v-33.39h33.39V233.74z M439.647,200.349h33.39v33.39h-33.39V200.349z M93.005,478.602l9.541-44.521h39.787l9.541,44.521H93.005z
			 M105.743,400.691V100.178h33.39v300.513H105.743z M339.476,233.74H172.524v-33.39c16.385,0,150.363,0,166.952,0V233.74z
			 M172.524,166.959v-66.781h33.39v66.781H172.524z M239.304,166.959v-66.781h33.39v66.781H239.304z M339.476,166.959h-33.39
			v-66.781h33.39V166.959z M360.128,478.602l9.541-44.521h39.787l9.541,44.521H360.128z M372.866,400.691V100.178h33.39v300.513
			H372.866z M426.462,66.788c-16.279,0-324.274,0-340.923,0c-21.429,0-40.22-13.511-47.224-33.39h435.371
			C466.682,53.277,447.891,66.788,426.462,66.788z"/>
	</g>
</g>
</svg>